<?xml version="1.0" encoding="UTF-8"?>
<svg width="130px" height="35px" viewBox="0 0 130 35" version="1.1" xmlns="http://www.w3.org/2000/svg" xmlns:xlink="http://www.w3.org/1999/xlink">
    <!-- Generator: Sketch 46.2 (44496) - http://www.bohemiancoding.com/sketch -->
    <title>logo</title>
    <desc>Created with Sketch.</desc>
    <defs>
        <linearGradient x1="26.6664227%" y1="-0.817892907%" x2="75.9431664%" y2="96.947281%" id="linearGradient-1">
            <stop stop-color="#FFFDF4" offset="0%"></stop>
            <stop stop-color="#ECD37E" offset="16.7051977%"></stop>
            <stop stop-color="#FFFCF4" offset="32.7268017%"></stop>
            <stop stop-color="#FFFFFF" offset="46.9606983%"></stop>
            <stop stop-color="#805D11" offset="50.8569834%"></stop>
            <stop stop-color="#FFE7A9" offset="64.0943878%"></stop>
            <stop stop-color="#5D3F00" offset="75.64772%"></stop>
            <stop stop-color="#9B8048" offset="87.374442%"></stop>
            <stop stop-color="#FFF5E0" offset="100%"></stop>
        </linearGradient>
        <linearGradient x1="100%" y1="0%" x2="0%" y2="90.1562242%" id="linearGradient-2">
            <stop stop-color="#FFEDB2" offset="0%"></stop>
            <stop stop-color="#FFE695" offset="51.7491704%"></stop>
            <stop stop-color="#D4A748" offset="100%"></stop>
        </linearGradient>
        <path d="M3.14689864,3.82037991 C5.9314583,4.90744351 8.59878055,6.2295386 11.1224699,7.76601818 C12.2643347,8.46113324 13.3756904,9.20098343 14.456537,9.98075112 C14.3314152,10.0863948 14.2059506,10.1923827 14.0815144,10.2990588 C13.5656013,10.7419365 13.058601,11.1944495 12.559485,11.6562537 C12.3620325,11.8200531 12.1762353,11.9969289 11.9976368,12.1813753 C10.7728144,13.4449706 10.0155705,15.1679612 10.0155705,17.0705806 C10.0155705,17.6215109 10.0855016,18.1552354 10.2051386,18.6696894 C10.9270742,21.7725867 13.6938083,24.0864251 17.0049078,24.0864251 C20.3156646,24.0864251 23.0823987,21.7729308 23.8043342,18.6700335 C23.9239712,18.1555795 23.9939023,17.6215109 23.9939023,17.0705806 C23.9939023,15.1989317 23.2592832,13.5027821 22.0697692,12.2450368 C21.858262,12.0217053 21.6354423,11.8100737 21.3965112,11.6159921 C20.9104216,11.1672644 20.415762,10.7274836 19.9135609,10.2963058 C19.7925527,10.1927268 19.6708589,10.089836 19.5491651,9.98728933 C20.6330969,9.20580106 21.7478806,8.4645744 22.8928306,7.76808288 C25.4158343,6.23366799 28.0817854,4.91294938 30.8653166,3.82760635 L30.8653166,20.7894462 L30.8653166,20.9319104 L30.869773,20.9319104 C30.869773,20.9370721 30.8701158,20.9422339 30.8701158,20.9477397 C30.8701158,21.5764403 30.7988135,22.1913763 30.6685498,22.7911711 C30.3984238,24.03584 29.8602287,25.2079004 29.1012708,26.2705317 C26.7266993,29.5936635 22.2010614,31.8407434 17.0049078,31.8407434 C11.8077259,31.8407434 7.2810596,29.5929752 4.90683084,26.268467 C4.14718734,25.2044592 3.60899225,24.0303342 3.33955191,22.7839447 C3.21031653,22.1865587 3.14689864,21.5736874 3.14689864,20.9477397 L3.14689864,3.82037991 Z M14.2741677,14.3517172 C14.3039912,14.321435 14.3362144,14.2942498 14.3667235,14.2649999 C15.2202941,13.4618323 16.1002602,12.6872263 17.0066218,11.9435909 C17.9397218,12.7095939 18.8450551,13.5079439 19.7215932,14.3369202 C19.7226216,14.3379526 19.7239928,14.3389849 19.725364,14.3403614 C20.4212468,15.0392617 20.8518029,16.004164 20.8518029,17.0705806 C20.8518029,19.2030698 19.1292358,20.9319104 17.0049078,20.9319104 C14.8802371,20.9319104 13.1580128,19.2030698 13.1580128,17.0705806 C13.1580128,16.0096699 13.5844553,15.0495852 14.2741677,14.3517172 L14.2741677,14.3517172 Z M34.0098157,1.57742943 C34.0098157,0.706126786 33.3063913,0 32.4387659,0 C32.2358287,0 32.0431754,0.0419821968 31.8652625,0.112181936 C31.8494937,0.117343681 31.8344106,0.12319366 31.8186418,0.128699521 C27.0050524,1.78011397 22.4972401,4.09154361 18.3987303,6.95321532 C17.9266955,7.28253468 17.4591171,7.61735991 16.9980518,7.96147628 C16.5373294,7.61770402 16.069751,7.28322292 15.598059,6.95390355 C11.5173748,4.10668473 7.03115882,1.80489035 2.24190818,0.156228831 C2.12569918,0.100826096 2.00366259,0.0560909679 1.87374161,0.0306263567 C1.77570098,0.0113558401 1.67491795,0 1.57104972,0 C0.703424402,0 -7.10542736e-15,0.706126786 -7.10542736e-15,1.57742943 L-7.10542736e-15,20.9319104 L0.000342799416,20.9319104 C0.000342799416,20.9374163 -7.10542736e-15,20.9429221 -7.10542736e-15,20.9487721 C-7.10542736e-15,22.8568974 0.462436412,24.6752082 1.29681019,26.3338491 C1.82712089,27.3882217 2.50792053,28.3772121 3.31795555,29.2832705 C6.41480547,32.74749 11.3908818,34.9952581 17.0042222,34.9952581 C22.6168771,34.9952581 27.5922678,32.7478341 30.6891177,29.284647 C31.4988099,28.3792768 32.1792668,27.3913187 32.7095775,26.3379785 C33.5453225,24.6783053 34.0087873,22.8582738 34.0087873,20.9487721 C34.0087873,20.9429221 34.0081017,20.9374163 34.0081017,20.9319104 L34.0122153,20.9319104 L34.0122153,1.57742943 L34.0098157,1.57742943 Z" id="path-3"></path>
        <filter x="-1.5%" y="-1.4%" width="102.9%" height="102.9%" filterUnits="objectBoundingBox" id="filter-4">
            <feGaussianBlur stdDeviation="0.5" in="SourceAlpha" result="shadowBlurInner1"></feGaussianBlur>
            <feOffset dx="0" dy="0" in="shadowBlurInner1" result="shadowOffsetInner1"></feOffset>
            <feComposite in="shadowOffsetInner1" in2="SourceAlpha" operator="arithmetic" k2="-1" k3="1" result="shadowInnerInner1"></feComposite>
            <feColorMatrix values="0 0 0 0 0   0 0 0 0 0   0 0 0 0 0  0 0 0 0.5 0" type="matrix" in="shadowInnerInner1"></feColorMatrix>
        </filter>
        <path d="M3.14689864,3.82037991 C5.9314583,4.90744351 8.59878055,6.2295386 11.1224699,7.76601818 C12.2643347,8.46113324 13.3756904,9.20098343 14.456537,9.98075112 C14.3314152,10.0863948 14.2059506,10.1923827 14.0815144,10.2990588 C13.5656013,10.7419365 13.058601,11.1944495 12.559485,11.6562537 C12.3620325,11.8200531 12.1762353,11.9969289 11.9976368,12.1813753 C10.7728144,13.4449706 10.0155705,15.1679612 10.0155705,17.0705806 C10.0155705,17.6215109 10.0855016,18.1552354 10.2051386,18.6696894 C10.9270742,21.7725867 13.6938083,24.0864251 17.0049078,24.0864251 C20.3156646,24.0864251 23.0823987,21.7729308 23.8043342,18.6700335 C23.9239712,18.1555795 23.9939023,17.6215109 23.9939023,17.0705806 C23.9939023,15.1989317 23.2592832,13.5027821 22.0697692,12.2450368 C21.858262,12.0217053 21.6354423,11.8100737 21.3965112,11.6159921 C20.9104216,11.1672644 20.415762,10.7274836 19.9135609,10.2963058 C19.7925527,10.1927268 19.6708589,10.089836 19.5491651,9.98728933 C20.6330969,9.20580106 21.7478806,8.4645744 22.8928306,7.76808288 C25.4158343,6.23366799 28.0817854,4.91294938 30.8653166,3.82760635 L30.8653166,20.7894462 L30.8653166,20.9319104 L30.869773,20.9319104 C30.869773,20.9370721 30.8701158,20.9422339 30.8701158,20.9477397 C30.8701158,21.5764403 30.7988135,22.1913763 30.6685498,22.7911711 C30.3984238,24.03584 29.8602287,25.2079004 29.1012708,26.2705317 C26.7266993,29.5936635 22.2010614,31.8407434 17.0049078,31.8407434 C11.8077259,31.8407434 7.2810596,29.5929752 4.90683084,26.268467 C4.14718734,25.2044592 3.60899225,24.0303342 3.33955191,22.7839447 C3.21031653,22.1865587 3.14689864,21.5736874 3.14689864,20.9477397 L3.14689864,3.82037991 Z M14.2741677,14.3517172 C14.3039912,14.321435 14.3362144,14.2942498 14.3667235,14.2649999 C15.2202941,13.4618323 16.1002602,12.6872263 17.0066218,11.9435909 C17.9397218,12.7095939 18.8450551,13.5079439 19.7215932,14.3369202 C19.7226216,14.3379526 19.7239928,14.3389849 19.725364,14.3403614 C20.4212468,15.0392617 20.8518029,16.004164 20.8518029,17.0705806 C20.8518029,19.2030698 19.1292358,20.9319104 17.0049078,20.9319104 C14.8802371,20.9319104 13.1580128,19.2030698 13.1580128,17.0705806 C13.1580128,16.0096699 13.5844553,15.0495852 14.2741677,14.3517172 L14.2741677,14.3517172 Z M34.0098157,1.57742943 C34.0098157,0.706126786 33.3063913,0 32.4387659,0 C32.2358287,0 32.0431754,0.0419821968 31.8652625,0.112181936 C31.8494937,0.117343681 31.8344106,0.12319366 31.8186418,0.128699521 C27.0050524,1.78011397 22.4972401,4.09154361 18.3987303,6.95321532 C17.9266955,7.28253468 17.4591171,7.61735991 16.9980518,7.96147628 C16.5373294,7.61770402 16.069751,7.28322292 15.598059,6.95390355 C11.5173748,4.10668473 7.03115882,1.80489035 2.24190818,0.156228831 C2.12569918,0.100826096 2.00366259,0.0560909679 1.87374161,0.0306263567 C1.77570098,0.0113558401 1.67491795,0 1.57104972,0 C0.703424402,0 -7.10542736e-15,0.706126786 -7.10542736e-15,1.57742943 L-7.10542736e-15,20.9319104 L0.000342799416,20.9319104 C0.000342799416,20.9374163 -7.10542736e-15,20.9429221 -7.10542736e-15,20.9487721 C-7.10542736e-15,22.8568974 0.462436412,24.6752082 1.29681019,26.3338491 C1.82712089,27.3882217 2.50792053,28.3772121 3.31795555,29.2832705 C6.41480547,32.74749 11.3908818,34.9952581 17.0042222,34.9952581 C22.6168771,34.9952581 27.5922678,32.7478341 30.6891177,29.284647 C31.4988099,28.3792768 32.1792668,27.3913187 32.7095775,26.3379785 C33.5453225,24.6783053 34.0087873,22.8582738 34.0087873,20.9487721 C34.0087873,20.9429221 34.0081017,20.9374163 34.0081017,20.9319104 L34.0122153,20.9319104 L34.0122153,1.57742943 L34.0098157,1.57742943 Z" id="path-5"></path>
        <linearGradient x1="32.0344652%" y1="71.3786837%" x2="85.1874338%" y2="11.5715931%" id="linearGradient-7">
            <stop stop-color="#FEE841" stop-opacity="0" offset="1.77176339%"></stop>
            <stop stop-color="#000000" offset="97.6941167%"></stop>
        </linearGradient>
    </defs>
    <g id="Page-1" stroke="none" stroke-width="1" fill="none" fill-rule="evenodd">
        <g id="博猫新首页" transform="translate(-335.000000, -52.000000)">
            <g id="menu" transform="translate(323.000000, -6.000000)">
                <g id="logo" transform="translate(12.000000, 58.000000)">
                    <g id="font" transform="translate(40.674847, 3.181818)" fill="#EDDCAD">
                        <g>
                            <path d="M14.2813953,10.0817759 L18.5347674,10.0817759 L18.5347674,8.76544045 L14.2813953,8.76544045 L14.2813953,10.0817759 Z M18.5340775,6.85585624 C18.5340775,6.61482734 18.4430078,6.41730796 18.2836357,6.2632981 C18.1249535,6.10997886 17.8972791,6.02157858 17.6468372,6.02157858 L14.2813953,6.02157858 L14.2813953,7.31650458 L18.5340775,7.31650458 L18.5340775,6.85585624 Z M8.45913953,10.0817759 L12.7345891,10.0817759 L12.7345891,8.76544045 L8.45913953,8.76544045 L8.45913953,10.0817759 Z M8.73234884,6.2632981 C8.5502093,6.41730796 8.45913953,6.61482734 8.45913953,6.85585624 L8.45913953,7.31650458 L12.7345891,7.31650458 L12.7345891,6.02157858 L9.36914729,6.02157858 C9.11870543,6.02157858 8.91448837,6.10997886 8.73234884,6.2632981 L8.73234884,6.2632981 Z M11.5527519,18.0260606 C11.9163411,18.22358 12.0294884,18.6621283 11.8025039,19.0136575 L11.7797364,19.0357576 C11.5755194,19.3872868 11.1201705,19.518506 10.7565814,19.2988865 L8.2093876,17.8506413 C7.86856589,17.6531219 7.73196124,17.2145736 7.95894574,16.8630444 L7.95894574,16.8195349 C8.2093876,16.4680056 8.66404651,16.380296 9.00555814,16.5778154 L11.5527519,18.0260606 Z M17.9200465,1.65474278 C18.1697984,1.65474278 18.3753953,1.56703312 18.556845,1.41302326 C18.6934496,1.28180409 18.7838295,1.10569415 18.8065969,0.908865398 C18.8528217,0.557336152 19.1474186,0.294207188 19.5572326,0.294207188 L19.58,0.294207188 C19.8083643,0.294207188 19.989814,0.359816772 20.1264186,0.535236082 C20.2857907,0.689245948 20.3534031,0.886765328 20.3306357,1.10569415 C20.2395659,1.61123326 19.989814,2.07188161 19.6255349,2.4448203 C19.170876,2.88336857 18.5796124,3.14718816 17.9200465,3.14718816 L14.2813953,3.14718816 L14.2813953,4.52982382 L17.6468372,4.52982382 C17.9883488,4.52982382 18.3064031,4.5954334 18.6023798,4.70524313 C19.170876,4.96837209 19.6255349,5.38551092 19.8759767,5.93386892 C20.0125814,6.24119803 20.0801938,6.54852713 20.0801938,6.85585624 L20.0801938,12.1004792 C20.0801938,12.5183087 19.7393721,12.8249471 19.3302481,12.8249471 L19.2840233,12.8249471 C18.8755891,12.8249471 18.5340775,12.5183087 18.5340775,12.1004792 L18.5340775,11.5742213 L14.2813953,11.5742213 L14.2813953,12.0355603 C14.2813953,12.430599 13.9178062,12.7593376 13.5307597,12.7593376 L13.4852248,12.7593376 C13.0761008,12.7593376 12.7345891,12.430599 12.7345891,12.0355603 L12.7345891,11.5742213 L8.45913953,11.5742213 L8.45913953,12.1004792 C8.45913953,12.5183087 8.14108527,12.8249471 7.73196124,12.8249471 L7.68642636,12.8249471 C7.27730233,12.8249471 6.9357907,12.5183087 6.9357907,12.1004792 L6.9357907,6.85585624 C6.9357907,6.24119803 7.209,5.62653982 7.66365891,5.21009161 C7.89064341,4.99047216 8.14108527,4.83715292 8.45913953,4.70524313 C8.73234884,4.5954334 9.05109302,4.52982382 9.36914729,4.52982382 L12.7345891,4.52982382 L12.7345891,3.14718816 L7.66365891,3.14718816 C7.25384496,3.14718816 6.91302326,2.81775899 6.91302326,2.42272023 L6.91302326,2.37921071 C6.91302326,1.98417195 7.25384496,1.65474278 7.66365891,1.65474278 L12.7345891,1.65474278 L12.7345891,0.842565187 C12.7345891,0.426116984 13.0761008,0.118787879 13.4852248,0.118787879 L13.5307597,0.118787879 C13.9178062,0.118787879 14.2813953,0.426116984 14.2813953,0.842565187 L14.2813953,1.65474278 L17.9200465,1.65474278 Z M19.8987442,14.0321635 C20.3306357,14.0321635 20.6493798,14.360902 20.6493798,14.7559408 L20.6493798,14.8001409 C20.6493798,15.1951797 20.3306357,15.5246089 19.8987442,15.5246089 L19.1253411,15.5246089 L19.1253411,17.6973221 C19.1253411,18.0260606 19.0570388,18.3112896 18.9204341,18.5972093 C18.6706822,19.1890768 18.2615581,19.5841156 17.6468372,19.8258351 C17.3750078,19.9577449 17.0328062,20.0012544 16.7147519,20.0012544 L14.7132868,20.0012544 C14.3269302,20.0012544 13.9626512,19.6939253 13.9626512,19.2767865 L13.9626512,19.255377 C13.9626512,18.8603383 14.3269302,18.5309091 14.7132868,18.5309091 L16.7147519,18.5309091 C16.9645039,18.5309091 17.1694109,18.4652995 17.3515504,18.3112896 C17.5102326,18.1358703 17.6019922,17.938351 17.6019922,17.6973221 L17.6019922,15.5246089 L7.48151938,15.5246089 C7.04962791,15.5246089 6.73157364,15.1951797 6.73157364,14.8001409 L6.73157364,14.7559408 C6.73157364,14.360902 7.04962791,14.0321635 7.48151938,14.0321635 L17.6019922,14.0321635 L17.6019922,13.9223538 C17.6019922,13.527315 17.9200465,13.1978858 18.3526279,13.1978858 L18.3753953,13.1978858 C18.7838295,13.1978858 19.1253411,13.527315 19.1253411,13.9223538 L19.1253411,14.0321635 L19.8987442,14.0321635 Z M3.86563566,19.3209866 C3.86563566,19.7381254 3.52481395,20.0454545 3.115,20.0454545 L3.07015504,20.0454545 C2.68310853,20.0454545 2.34228682,19.7381254 2.34228682,19.3209866 L2.34228682,7.07547569 L0.750635659,7.07547569 C0.318744186,7.07547569 0,6.72394644 0,6.35100775 L0,6.30749824 C0,5.89035941 0.318744186,5.5830303 0.750635659,5.5830303 L2.34228682,5.5830303 L2.34228682,0.799055673 C2.34228682,0.381916843 2.68310853,0.0745877378 3.07015504,0.0745877378 L3.115,0.0745877378 C3.52481395,0.0745877378 3.86563566,0.381916843 3.86563566,0.799055673 L3.86563566,5.5830303 L5.48005426,5.5830303 C5.88986822,5.5830303 6.23137984,5.89035941 6.23137984,6.30749824 L6.23137984,6.35100775 C6.23137984,6.72394644 5.88986822,7.07547569 5.48005426,7.07547569 L3.86563566,7.07547569 L3.86563566,19.3209866 Z" id="Fill-1"></path>
                            <path d="M40.5670969,18.6406498 C40.9079186,18.6406498 41.2266628,18.50874 41.4764147,18.2677111 C41.749624,18.0259915 41.8634612,17.7628626 41.8634612,17.3899239 L41.8634612,14.1198041 L37.7239264,14.1198041 L37.7239264,18.6406498 L40.5670969,18.6406498 Z M37.7239264,12.6273587 L41.8634612,12.6273587 L41.8634612,9.46773925 C41.8634612,9.13831008 41.749624,8.83098097 41.4764147,8.58926145 C41.2266628,8.32613249 40.9079186,8.19422269 40.5670969,8.19422269 L37.7239264,8.19422269 L37.7239264,12.6273587 Z M32.4025543,18.2677111 C32.6523062,18.50874 32.9703605,18.6406498 33.3353295,18.6406498 L36.1550426,18.6406498 L36.1550426,14.1198041 L32.0389651,14.1198041 L32.0389651,17.3899239 C32.0389651,17.7628626 32.1521124,18.0259915 32.4025543,18.2677111 L32.4025543,18.2677111 Z M36.1550426,8.19422269 L33.3353295,8.19422269 C32.9703605,8.19422269 32.6523062,8.32613249 32.4025543,8.58926145 C32.1521124,8.83098097 32.0389651,9.13831008 32.0389651,9.46773925 L32.0389651,12.6273587 L36.1550426,12.6273587 L36.1550426,8.19422269 Z M33.3353295,20.1330951 C32.1521124,20.1330951 31.1744922,19.4749274 30.7191434,18.4652304 C30.5832287,18.1358013 30.4921589,17.7628626 30.4921589,17.3899239 L30.4921589,9.46773925 C30.4921589,9.09480056 30.5832287,8.74327132 30.7191434,8.41384214 C31.0151202,7.73357435 31.5387713,7.22872586 32.2204147,6.94349683 C32.5846938,6.79017759 32.9482829,6.74597745 33.3353295,6.74597745 L40.5670969,6.74597745 C40.9534535,6.74597745 41.3170426,6.79017759 41.6578643,6.94349683 C42.3408876,7.22872586 42.8638488,7.73357435 43.1819031,8.41384214 C43.3185078,8.74327132 43.3868101,9.09480056 43.3868101,9.46773925 L43.3868101,17.3899239 C43.3868101,17.7628626 43.3185078,18.1358013 43.1819031,18.4652304 C42.7044767,19.4749274 41.7268566,20.1330951 40.5670969,20.1330951 L33.3353295,20.1330951 Z M42.7272442,2.18162227 C43.1363682,2.18162227 43.4778798,2.48895137 43.4778798,2.90539958 L43.4778798,2.92749965 C43.4778798,3.34463848 43.1363682,3.65196758 42.7272442,3.65196758 L41.6578643,3.65196758 L41.6578643,4.74937421 C41.6578643,5.14441297 41.3170426,5.47315152 40.9079186,5.47315152 L40.8623837,5.47315152 C40.4760271,5.47315152 40.112438,5.14441297 40.112438,4.74937421 L40.112438,3.65196758 L33.7437636,3.65196758 L33.7437636,4.74937421 C33.7437636,5.14441297 33.4029419,5.47315152 32.9938178,5.47315152 L32.9482829,5.47315152 C32.5391589,5.47315152 32.1983372,5.14441297 32.1983372,4.74937421 L32.1983372,3.65196758 L31.1744922,3.65196758 C30.7653682,3.65196758 30.4245465,3.34463848 30.4245465,2.92749965 L30.4245465,2.90539958 C30.4245465,2.48895137 30.7653682,2.18162227 31.1744922,2.18162227 L32.1983372,2.18162227 L32.1983372,1.04070613 C32.1983372,0.645667371 32.5391589,0.316238196 32.9482829,0.316238196 L32.9938178,0.316238196 C33.4029419,0.316238196 33.7437636,0.645667371 33.7437636,1.04070613 L33.7437636,2.18162227 L40.112438,2.18162227 L40.112438,1.04070613 C40.112438,0.645667371 40.4760271,0.316238196 40.8623837,0.316238196 L40.9079186,0.316238196 C41.3170426,0.316238196 41.6578643,0.645667371 41.6578643,1.04070613 L41.6578643,2.18162227 L42.7272442,2.18162227 Z M25.9441899,1.06211557 C26.2850116,1.743074 26.5809884,2.44475123 26.8762752,3.12501903 C27.2405543,2.70857082 27.5586085,2.24723185 27.8773527,1.76448344 C28.0815698,1.43574489 28.5141512,1.32524454 28.8777403,1.50135447 L28.8998178,1.52345455 C29.0819574,1.63257364 29.1957946,1.78658351 29.2640969,1.96200282 C29.3096318,2.18162227 29.2875543,2.37914165 29.1730271,2.53246089 C28.6728333,3.32253841 28.1043372,4.06841579 27.5130736,4.74937421 C27.6489884,5.14441297 27.785593,5.5615518 27.9221977,5.95659056 C28.4913837,7.84338407 28.7859806,9.77506836 28.7859806,11.7281621 C28.7859806,13.1764073 28.604531,14.6025525 28.2181744,15.9851882 C27.8994302,17.1703044 27.4220039,18.3333206 26.7403605,19.4749274 C26.5354535,19.8478661 26.0807946,19.9576758 25.7172054,19.7380564 L25.6709806,19.7159563 C25.3301589,19.5184369 25.2156318,19.1012981 25.3984612,18.7504595 C25.9669574,17.7186624 26.4216163,16.665456 26.6948256,15.6122495 C26.9445775,14.6909528 27.1260271,13.7468654 27.1950194,12.7813686 C26.8990426,13.1101071 26.5809884,13.4174362 26.2622442,13.7026653 C25.6709806,14.2517139 25.0114147,14.7786624 24.3518488,15.2393108 C24.1924767,15.37053 23.9654922,15.39263 23.7605853,15.37053 C23.5556783,15.3270204 23.4190736,15.1951106 23.2831589,15.0417914 L23.2603915,15.0196913 C23.0554845,14.6681621 23.1472442,14.2517139 23.4652984,14.0320944 C24.7844302,13.1543073 25.898655,12.1232008 26.8762752,10.8496843 C26.967345,10.7405652 27.0811822,10.674265 27.1950194,10.6307555 C27.1039496,9.18251022 26.8541977,7.75567442 26.4216163,6.30742918 C26.3760814,6.19761945 26.352624,6.08780973 26.3077791,5.95659056 C25.7172054,6.50494856 25.080407,7.03120648 24.3973837,7.51464553 C24.2152442,7.64586469 24.0110271,7.71147428 23.8068101,7.66796476 C23.6012132,7.62376462 23.4418411,7.51464553 23.3066163,7.33853559 L23.2831589,7.29502607 C23.0782519,6.98769697 23.1472442,6.54845807 23.4652984,6.32883862 C24.2842364,5.73697111 25.0569496,5.10021283 25.7620504,4.39784496 C25.4212287,3.49795772 25.0114147,2.5987611 24.5788333,1.7202833 C24.3973837,1.36944468 24.5339884,0.952305849 24.9210349,0.77688654 L24.9658798,0.754786469 C25.3301589,0.557267089 25.7620504,0.711276956 25.9441899,1.06211557 L25.9441899,1.06211557 Z" id="Fill-3"></path>
                            <path d="M60.075138,2.02781959 L65.4192775,2.02781959 C65.8284016,2.02781959 66.1692233,2.35724877 66.1692233,2.75228753 L66.1692233,2.79579704 C66.1692233,3.1908358 65.8284016,3.52026498 65.4192775,3.52026498 L58.9381457,3.52026498 C58.6877039,3.52026498 58.4827969,3.41045525 58.3241147,3.21293587 C58.1875101,3.01541649 58.1419752,2.79579704 58.232355,2.55476815 L58.8243085,0.886903453 C58.9836806,0.513964764 59.3921147,0.315754757 59.8019287,0.426255109 L59.8246961,0.447664553 C60.2110527,0.579574348 60.4159597,0.974613108 60.3021225,1.3475518 L60.075138,2.02781959 Z M64.8956264,5.25442988 C65.1233008,5.25442988 65.3282078,5.34213953 65.4868899,5.51755884 C65.6234946,5.67087808 65.6690295,5.89049753 65.646262,6.11011698 C65.3054403,7.84359126 64.7824791,9.57706554 63.9863085,11.1572206 L65.442045,11.1572206 C65.8504791,11.1572206 66.1919907,11.4645497 66.1919907,11.8816885 L66.1919907,11.9037886 C66.1919907,12.3202368 65.8504791,12.6275659 65.442045,12.6275659 L63.5544171,12.6275659 L63.5544171,17.4999408 C63.5544171,18.1581085 63.2812078,18.8162763 62.8030915,19.2769246 C62.576107,19.496544 62.3028977,19.6719634 62.0083008,19.7817731 C61.6895566,19.9357829 61.348045,20.0013925 61.0072233,20.0013925 L59.8474636,20.0013925 C59.4383395,20.0013925 59.0975178,19.6719634 59.0975178,19.2769246 L59.0975178,19.2334151 C59.0975178,18.8383763 59.4383395,18.5089471 59.8474636,18.5089471 L61.0072233,18.5089471 C61.2797426,18.5089471 61.5308744,18.3991374 61.7578589,18.2237181 C61.9393085,18.0261987 62.0310682,17.7844792 62.0310682,17.4999408 L62.0310682,12.6275659 L58.847076,12.6275659 C58.437262,12.6275659 58.0957504,12.3202368 58.0957504,11.9037886 L58.0957504,11.8816885 C58.0957504,11.4645497 58.437262,11.1572206 58.847076,11.1572206 L62.2580527,11.1572206 C63.0763008,9.77458492 63.6454868,8.4361494 64.009076,6.72408457 L59.2327426,6.72408457 C58.8015411,6.72408457 58.4827969,6.39534602 58.4827969,6.00030726 L58.4827969,5.97820719 C58.4827969,5.58316843 58.8015411,5.25442988 59.2327426,5.25442988 L64.8956264,5.25442988 Z M56.7317736,2.18113883 C57.1408977,2.18113883 57.4824093,2.51056801 57.4824093,2.90560677 L57.4824093,2.94980691 C57.4824093,3.3227456 57.1408977,3.67358421 56.7317736,3.67358421 L52.7295333,3.67358421 L52.7295333,6.81248485 L52.7295333,7.03141367 L54.7309984,7.03141367 C55.3677969,7.03141367 55.981138,7.29523326 56.4137194,7.73378154 C56.6179364,7.95340099 56.800076,8.19442988 56.9139132,8.50175899 C57.0725953,8.78698802 57.1181302,9.07290768 57.1181302,9.37954616 L57.1181302,17.6090599 C57.1181302,17.916389 57.0725953,18.2458182 56.9139132,18.5310472 C56.6641612,19.0794052 56.2543473,19.496544 55.6630837,19.759673 C55.3677969,19.8694827 55.0718202,19.9357829 54.7309984,19.9357829 L54.1845798,19.9357829 C53.7754558,19.9357829 53.4346341,19.6063538 53.4346341,19.211315 L53.4346341,19.1671149 C53.4346341,18.7727667 53.7754558,18.4433376 54.1845798,18.4433376 L54.7309984,18.4433376 C54.9579829,18.4433376 55.1622,18.3549373 55.3443395,18.2023087 C55.5037116,18.0261987 55.5947814,17.8286794 55.5947814,17.6090599 L55.5947814,9.37954616 C55.5947814,9.13782664 55.5037116,8.94099789 55.3443395,8.78698802 C55.1622,8.58946864 54.9579829,8.52385906 54.7309984,8.52385906 L52.7295333,8.52385906 L52.7067659,8.52385906 C52.5929287,12.188327 52.1838047,15.8755856 51.2965643,19.3211247 C51.2061845,19.7375729 50.7963705,19.9571924 50.3872465,19.8694827 L50.3644791,19.8480733 C49.9546651,19.7817731 49.7042233,19.3646342 49.8180605,18.9916956 C50.7963705,15.1076082 51.2061845,10.8940916 51.2061845,6.81248485 L51.2061845,3.67358421 L50.7736031,3.67358421 C50.3872465,3.67358421 50.0464248,3.3227456 50.0464248,2.94980691 L50.0464248,2.90560677 C50.0464248,2.51056801 50.3872465,2.18113883 50.7736031,2.18113883 L52.9572078,2.18113883 L52.9572078,0.909003524 C52.9572078,0.535374207 53.2980295,0.184535588 53.7071535,0.184535588 L53.7533783,0.184535588 C54.1618124,0.184535588 54.503324,0.535374207 54.503324,0.909003524 L54.503324,2.18113883 L56.7317736,2.18113883 Z M48.8404403,9.99420437 C48.8404403,10.3892431 48.4996186,10.7186723 48.0898047,10.7186723 L48.0442698,10.7186723 C47.6586031,10.7186723 47.294324,10.3892431 47.294324,9.99420437 L47.294324,7.31664271 C47.294324,6.9001945 47.6586031,6.5928654 48.0442698,6.5928654 L48.0898047,6.5928654 C48.4996186,6.5928654 48.8404403,6.9001945 48.8404403,7.31664271 L48.8404403,9.99420437 Z M48.8404403,3.91530374 C48.8404403,4.31034249 48.4996186,4.63977167 48.0898047,4.63977167 L48.0442698,4.63977167 C47.6586031,4.63977167 47.294324,4.31034249 47.294324,3.91530374 L47.294324,1.23774207 C47.294324,0.842703312 47.6586031,0.513964764 48.0442698,0.513964764 L48.0898047,0.513964764 C48.4996186,0.513964764 48.8404403,0.842703312 48.8404403,1.23774207 L48.8404403,3.91530374 Z M47.294324,19.2334151 C47.1577194,19.6063538 46.7030605,19.7817731 46.3167039,19.6284538 L46.2932465,19.6063538 C45.9068899,19.474444 45.7254403,19.0579958 45.9068899,18.6622664 L48.2491767,13.1324144 C48.4078589,12.7808851 48.8632078,12.6054658 49.2274868,12.7373756 L49.2502543,12.7594757 C49.6366109,12.8906949 49.8408279,13.3299338 49.6593783,13.7028724 L47.294324,19.2334151 Z" id="Fill-4"></path>
                            <path d="M87.1326558,19.4087653 C86.3364853,18.2671586 85.6320744,17.0606328 84.9497411,15.809907 C84.745524,15.4362777 84.5399271,15.063339 84.3584775,14.6683002 C83.0621132,15.8534165 81.5387643,16.9729232 79.8553535,18.0040296 C79.4917643,18.223649 79.0371054,18.1138393 78.809431,17.7630007 L78.7873535,17.7188006 C78.5817566,17.3679619 78.6955938,16.9508231 79.0371054,16.7312037 C80.8329736,15.6344877 82.4025473,14.4707808 83.7216791,13.242155 C82.7212915,10.915432 81.9706558,8.45818041 81.4697721,5.93393798 C81.4249271,5.69290909 81.3573147,5.45118957 81.3110899,5.18806061 L78.6955938,5.18806061 C78.2637023,5.18806061 77.9456481,4.8807315 77.9456481,4.46359267 L77.9456481,4.4414926 C77.9456481,4.04714447 78.2637023,3.71771529 78.6955938,3.71771529 L81.0841054,3.71771529 C80.9695783,2.83992812 80.8791984,1.9179408 80.8329736,0.996644116 C80.8108961,0.799124736 80.8791984,0.601605356 81.0158031,0.46969556 C81.1744853,0.315685694 81.3338574,0.227976039 81.5387643,0.227976039 L81.5842992,0.227976039 C81.9706558,0.206566596 82.3349349,0.513895701 82.3577023,0.88683439 C82.4253147,1.85233122 82.5163845,2.79572798 82.6529891,3.71771529 L85.1767256,3.71771529 C85.5403147,3.71771529 85.8590589,3.60790557 86.1095008,3.3447766 C86.3827101,3.10305708 86.4958574,2.79572798 86.4958574,2.46698943 L86.4958574,1.85233122 C86.4958574,1.45729246 86.837369,1.12855391 87.246493,1.12855391 L87.2920279,1.12855391 C87.6790744,1.12855391 88.0198961,1.45729246 88.0198961,1.85233122 L88.0198961,2.46698943 C88.0198961,2.83992812 87.9515938,3.19076674 87.8156791,3.52019591 C87.4969349,4.17836364 86.9732837,4.68321212 86.2916403,4.99054123 C85.9280512,5.12245102 85.5865395,5.18806061 85.1767256,5.18806061 L82.8799736,5.18806061 C82.9027411,5.34207047 82.948276,5.47328964 82.9717333,5.60519944 C83.4257023,7.8435222 84.0397333,9.99413531 84.8814388,12.0570388 C85.6769194,11.1792516 86.3599426,10.2793643 86.9505163,9.33596758 C87.1788806,9.00653841 87.6328496,8.89672868 87.9750512,9.09424806 L88.0198961,9.11634813 C88.3834853,9.31386751 88.4973225,9.75241579 88.2696481,10.103945 C87.5197023,11.3104708 86.6096946,12.4741776 85.5403147,13.5708936 C85.7914465,14.0978421 86.0646558,14.6247907 86.3364853,15.1296392 C86.9732837,16.3368555 87.6790744,17.4777717 88.4062527,18.5744877 C88.6339271,18.9260169 88.5428574,19.3645652 88.1792682,19.5841846 L88.1565008,19.6062847 C87.8156791,19.8259042 87.3603302,19.7381945 87.1326558,19.4087653 L87.1326558,19.4087653 Z M76.3539969,1.80813108 C76.5809814,1.80813108 76.762431,1.9179408 76.9218031,2.07195067 C77.0811752,2.24736998 77.1267101,2.44488936 77.1039426,2.66381818 C76.8541907,4.26607329 76.558214,5.78061875 76.2173922,7.1632544 C75.7848109,8.85321917 75.2397721,10.4547837 74.5802062,11.9914292 L76.8079659,16.1172361 C77.0135628,16.4680747 76.8541907,16.9073136 76.513369,17.0827329 L76.4443767,17.1041424 C76.0807876,17.3237618 75.6254388,17.1704426 75.4439891,16.8196039 L73.7612682,13.6813939 C73.3742217,14.4051712 72.9650977,15.1075391 72.5104388,15.7878069 C71.7825705,16.8631135 70.9636326,17.9163199 70.0322372,18.9695264 C69.8728651,19.1235363 69.713493,19.2112459 69.5078961,19.233346 C69.3036791,19.233346 69.099462,19.1677364 68.9400899,19.0137266 L68.9173225,18.9916265 C68.6220357,18.7505976 68.5992682,18.2899493 68.8490202,18.0040296 C70.5096636,16.1607456 71.8736403,14.251852 72.8967953,12.0791388 L69.4858186,5.71431853 C69.2809116,5.34207047 69.4175163,4.92424101 69.8038729,4.72741226 L69.8266403,4.70531219 C70.2136868,4.55199295 70.6455783,4.66111205 70.8270279,5.03474137 L73.6701984,10.3014644 C73.9882527,9.48928682 74.261462,8.65569979 74.511214,7.77791261 C74.8982605,6.30687667 75.2618496,4.74882171 75.4667566,3.30057646 L69.5541209,3.30057646 C69.144307,3.30057646 68.8262527,2.97114729 68.8262527,2.57610853 L68.8262527,2.53259901 C68.8262527,2.15966032 69.144307,1.80813108 69.5541209,1.80813108 L76.3539969,1.80813108 Z" id="Fill-5"></path>
                            <path d="M14.711631,27.6284031 C14.7005922,27.6643157 14.6840341,27.6933221 14.6619566,27.7147315 C14.6398791,27.7368316 14.6088326,27.752716 14.5701969,27.7644567 C14.5315612,27.7761973 14.4839566,27.7844848 14.426693,27.7893192 C14.3701194,27.7941536 14.3004372,27.7976068 14.2169566,27.7976068 C14.1314062,27.7976068 14.0582744,27.7941536 13.9989411,27.7893192 C13.9396078,27.7844848 13.8906233,27.7761973 13.8512977,27.7644567 C13.812662,27.752716 13.7836853,27.7368316 13.7643674,27.7147315 C13.7450496,27.6933221 13.7298713,27.6643157 13.7188326,27.6284031 L12.5928791,23.8824412 L12.5846,23.8824412 L11.5455767,27.6284031 C11.5372977,27.6643157 11.5234992,27.6933221 11.5041814,27.7147315 C11.4848636,27.7368316 11.4572667,27.752716 11.4213907,27.7644567 C11.3848248,27.7761973 11.3386,27.7844848 11.2820264,27.7893192 C11.2254527,27.7941536 11.1523209,27.7976068 11.0640109,27.7976068 C10.9722512,27.7976068 10.8963597,27.7941536 10.8349566,27.7893192 C10.7742434,27.7844848 10.724569,27.7761973 10.6859333,27.7644567 C10.6466078,27.752716 10.6169411,27.7368316 10.5962434,27.7147315 C10.5755457,27.6933221 10.5610574,27.6643157 10.5527783,27.6284031 L9.13222791,23.0460916 C9.11497984,22.9873883 9.10670078,22.9418069 9.10463101,22.9086568 C9.10325116,22.8755067 9.11428992,22.8492629 9.13843721,22.8319972 C9.16189457,22.8140409 9.19984031,22.8023002 9.25227442,22.7974658 C9.30470853,22.7919408 9.37577054,22.7898689 9.46408062,22.7898689 C9.55032093,22.7898689 9.61793333,22.7919408 9.66760775,22.7953939 C9.71797209,22.7995377 9.75591783,22.806444 9.78213488,22.8161128 C9.80835194,22.8264722 9.82628992,22.8409753 9.83594884,22.8589316 C9.84560775,22.8768879 9.8531969,22.8996786 9.85871628,22.9279944 L11.0681504,27.0841889 L11.0722899,27.0841889 L12.2189411,22.9355913 C12.2272202,22.9072755 12.237569,22.8837942 12.2499876,22.8644567 C12.2624062,22.8451191 12.282414,22.8306159 12.3100109,22.8202565 C12.3376078,22.8098971 12.3776233,22.8023002 12.4286775,22.7974658 C12.4797318,22.7919408 12.5473442,22.7898689 12.6301349,22.7898689 C12.7074062,22.7898689 12.7694992,22.7919408 12.8150341,22.7974658 C12.860569,22.8023002 12.8978248,22.8098971 12.9254217,22.8202565 C12.9530186,22.8306159 12.9730264,22.8451191 12.985445,22.8644567 C12.9978636,22.8837942 13.0082124,22.9072755 13.0164915,22.9355913 L14.2507628,27.0841889 L14.2583519,27.0841889 L15.4429488,22.9314475 C15.4512279,22.9058943 15.459507,22.8837942 15.467786,22.8644567 C15.4760651,22.8451191 15.4933132,22.8306159 15.5195302,22.8202565 C15.5464372,22.8098971 15.5830031,22.8023002 15.6319876,22.7974658 C15.6802822,22.7919408 15.744445,22.7898689 15.8251659,22.7898689 C15.9079566,22.7898689 15.9741891,22.7926314 16.0224837,22.7995377 C16.0707783,22.8057533 16.1059643,22.8181846 16.1287318,22.8354503 C16.1508093,22.8534066 16.1611581,22.8789598 16.1597783,22.9121099 C16.1577085,22.9459507 16.1508093,22.9915321 16.1363209,23.0502354 L14.711631,27.6284031 Z" id="Fill-6"></path>
                            <path d="M22.2813915,27.6284031 C22.2703527,27.6643157 22.2537946,27.6933221 22.2317171,27.7147315 C22.2096395,27.7368316 22.178593,27.752716 22.1399574,27.7644567 C22.1013217,27.7761973 22.0537171,27.7844848 21.9964535,27.7893192 C21.9398798,27.7941536 21.8701977,27.7976068 21.7867171,27.7976068 C21.7011667,27.7976068 21.6280349,27.7941536 21.5687016,27.7893192 C21.5093682,27.7844848 21.4603837,27.7761973 21.4210581,27.7644567 C21.3824225,27.752716 21.3534457,27.7368316 21.3341279,27.7147315 C21.3148101,27.6933221 21.2996318,27.6643157 21.288593,27.6284031 L20.1626395,23.8824412 L20.1543605,23.8824412 L19.1153372,27.6284031 C19.1070581,27.6643157 19.0932597,27.6933221 19.0739419,27.7147315 C19.054624,27.7368316 19.0270271,27.752716 18.9911512,27.7644567 C18.9545853,27.7761973 18.9083605,27.7844848 18.8517868,27.7893192 C18.7952132,27.7941536 18.7220814,27.7976068 18.6337713,27.7976068 C18.5420116,27.7976068 18.4661202,27.7941536 18.4047171,27.7893192 C18.3440039,27.7844848 18.2943295,27.7761973 18.2556938,27.7644567 C18.2163682,27.752716 18.1867016,27.7368316 18.1660039,27.7147315 C18.1453062,27.6933221 18.1308178,27.6643157 18.1225388,27.6284031 L16.7019884,23.0460916 C16.6847403,22.9873883 16.6764612,22.9418069 16.6743915,22.9086568 C16.6730116,22.8755067 16.6840504,22.8492629 16.7081977,22.8319972 C16.731655,22.8140409 16.7696008,22.8023002 16.8220349,22.7974658 C16.874469,22.7919408 16.945531,22.7898689 17.0338411,22.7898689 C17.1200814,22.7898689 17.1876938,22.7919408 17.2373682,22.7953939 C17.2877326,22.7995377 17.3256783,22.806444 17.3518953,22.8161128 C17.3781124,22.8264722 17.3960504,22.8409753 17.4057093,22.8589316 C17.4153682,22.8768879 17.4229574,22.8996786 17.4284767,22.9279944 L18.6379109,27.0841889 L18.6420504,27.0841889 L19.7887016,22.9355913 C19.7969806,22.9072755 19.8073295,22.8837942 19.8197481,22.8644567 C19.8321667,22.8451191 19.8521744,22.8306159 19.8797713,22.8202565 C19.9073682,22.8098971 19.9473837,22.8023002 19.998438,22.7974658 C20.0494922,22.7919408 20.1171047,22.7898689 20.1998953,22.7898689 C20.2771667,22.7898689 20.3392597,22.7919408 20.3847946,22.7974658 C20.4303295,22.8023002 20.4675853,22.8098971 20.4951822,22.8202565 C20.5227791,22.8306159 20.5427868,22.8451191 20.5552054,22.8644567 C20.567624,22.8837942 20.5779729,22.9072755 20.5862519,22.9355913 L21.8205233,27.0841889 L21.8281124,27.0841889 L23.0127093,22.9314475 C23.0209884,22.9058943 23.0292674,22.8837942 23.0375465,22.8644567 C23.0458256,22.8451191 23.0630736,22.8306159 23.0892907,22.8202565 C23.1161977,22.8098971 23.1527636,22.8023002 23.2017481,22.7974658 C23.2500426,22.7919408 23.3142054,22.7898689 23.3949264,22.7898689 C23.4777171,22.7898689 23.5439496,22.7926314 23.5922442,22.7995377 C23.6405388,22.8057533 23.6757248,22.8181846 23.6984922,22.8354503 C23.7205698,22.8534066 23.7309186,22.8789598 23.7295388,22.9121099 C23.727469,22.9459507 23.7205698,22.9915321 23.7060814,23.0502354 L22.2813915,27.6284031 Z" id="Fill-7"></path>
                            <path d="M29.8512899,27.6284031 C29.8402512,27.6643157 29.823693,27.6933221 29.8016155,27.7147315 C29.779538,27.7368316 29.7484915,27.752716 29.7098558,27.7644567 C29.6712202,27.7761973 29.6236155,27.7844848 29.5663519,27.7893192 C29.5097783,27.7941536 29.4400961,27.7976068 29.3566155,27.7976068 C29.2710651,27.7976068 29.1979333,27.7941536 29.1386,27.7893192 C29.0792667,27.7844848 29.0302822,27.7761973 28.9909566,27.7644567 C28.9523209,27.752716 28.9233442,27.7368316 28.9040264,27.7147315 C28.8847085,27.6933221 28.8695302,27.6643157 28.8584915,27.6284031 L27.732538,23.8824412 L27.7242589,23.8824412 L26.6852357,27.6284031 C26.6769566,27.6643157 26.6631581,27.6933221 26.6438403,27.7147315 C26.6245225,27.7368316 26.5969256,27.752716 26.5610496,27.7644567 C26.5244837,27.7761973 26.4782589,27.7844848 26.4216853,27.7893192 C26.3651116,27.7941536 26.2919798,27.7976068 26.2036698,27.7976068 C26.1119101,27.7976068 26.0360186,27.7941536 25.9746155,27.7893192 C25.9139023,27.7844848 25.8642279,27.7761973 25.8255922,27.7644567 C25.7862667,27.752716 25.7566,27.7368316 25.7359023,27.7147315 C25.7152047,27.6933221 25.7007163,27.6643157 25.6924372,27.6284031 L24.2718868,23.0460916 C24.2546388,22.9873883 24.2463597,22.9418069 24.2442899,22.9086568 C24.2429101,22.8755067 24.2539488,22.8492629 24.2780961,22.8319972 C24.3015535,22.8140409 24.3394992,22.8023002 24.3919333,22.7974658 C24.4443674,22.7919408 24.5154295,22.7898689 24.6037395,22.7898689 C24.6899798,22.7898689 24.7575922,22.7919408 24.8072667,22.7953939 C24.857631,22.7995377 24.8955767,22.806444 24.9217938,22.8161128 C24.9480109,22.8264722 24.9659488,22.8409753 24.9756078,22.8589316 C24.9852667,22.8768879 24.9928558,22.8996786 24.9983752,22.9279944 L26.2078093,27.0841889 L26.2119488,27.0841889 L27.3586,22.9355913 C27.3668791,22.9072755 27.3772279,22.8837942 27.3896465,22.8644567 C27.4020651,22.8451191 27.4220729,22.8306159 27.4496698,22.8202565 C27.4772667,22.8098971 27.5172822,22.8023002 27.5683364,22.7974658 C27.6193907,22.7919408 27.6870031,22.7898689 27.7697938,22.7898689 C27.8470651,22.7898689 27.9091581,22.7919408 27.954693,22.7974658 C28.0002279,22.8023002 28.0374837,22.8098971 28.0650806,22.8202565 C28.0926775,22.8306159 28.1126853,22.8451191 28.1251039,22.8644567 C28.1375225,22.8837942 28.1478713,22.9072755 28.1561504,22.9355913 L29.3904217,27.0841889 L29.3987008,27.0841889 L30.5826078,22.9314475 C30.5908868,22.9058943 30.5991659,22.8837942 30.607445,22.8644567 C30.615724,22.8451191 30.6329721,22.8306159 30.6591891,22.8202565 C30.6860961,22.8098971 30.722662,22.8023002 30.7716465,22.7974658 C30.8199411,22.7919408 30.8841039,22.7898689 30.9648248,22.7898689 C31.0476155,22.7898689 31.1138481,22.7926314 31.1621426,22.7995377 C31.2104372,22.8057533 31.2456233,22.8181846 31.2683907,22.8354503 C31.2904682,22.8534066 31.3008171,22.8789598 31.2994372,22.9121099 C31.2973674,22.9459507 31.2904682,22.9915321 31.2759798,23.0502354 L29.8512899,27.6284031 Z" id="Fill-8"></path>
                            <path d="M32.2236574,27.3560888 C32.2236574,27.5377237 32.191231,27.6585835 32.1263783,27.7186681 C32.0608357,27.7787526 31.942169,27.8084496 31.7710682,27.8084496 C31.6047969,27.8084496 31.4895798,27.7794433 31.426107,27.72074 C31.3619442,27.661346 31.3302078,27.5439394 31.3302078,27.3678295 C31.3302078,27.1861945 31.363324,27.0653347 31.4281767,27.0052502 C31.4930295,26.9451656 31.6116961,26.9154686 31.7834868,26.9154686 C31.9490682,26.9154686 32.0642853,26.944475 32.1277581,27.0038689 C32.1919209,27.0625722 32.2236574,27.1792882 32.2236574,27.3560888" id="Fill-9"></path>
                            <path d="M36.3573969,26.3899704 C36.3573969,26.2421762 36.3318698,26.110957 36.2808155,25.9983848 C36.2297612,25.8865032 36.1552496,25.7918872 36.0565907,25.7152276 C35.9586217,25.638568 35.8358155,25.5805553 35.6874822,25.5404989 C35.5398388,25.5011332 35.3542496,25.481105 35.1300248,25.481105 L34.2759008,25.481105 L34.2759008,27.2297731 L35.3128543,27.2297731 C35.475676,27.2297731 35.6178,27.2118168 35.7399163,27.1759042 C35.8613426,27.1399915 35.9682806,27.0868132 36.0607302,27.0170599 C36.1538698,26.9466159 36.2263116,26.8589063 36.2787457,26.7539309 C36.3311798,26.6496462 36.3573969,26.5280958 36.3573969,26.3899704 M36.0331333,24.1316195 C36.0331333,24.0114503 36.0151953,23.9030218 35.9793194,23.8056434 C35.9434434,23.7089556 35.8868698,23.6260803 35.8095984,23.5583989 C35.7323271,23.4907174 35.6315984,23.4389204 35.5067225,23.4030078 C35.3825364,23.3670951 35.2183349,23.3491388 35.0134279,23.3491388 L34.2759008,23.3491388 L34.2759008,24.9562283 L35.0886295,24.9562283 C35.2735287,24.9562283 35.4225519,24.9334376 35.5363891,24.8885469 C35.6495364,24.8443467 35.7433659,24.7842622 35.8178775,24.7089838 C35.8923891,24.6330148 35.946893,24.5453051 35.9813891,24.4437829 C36.0158853,24.3429514 36.0331333,24.2386667 36.0331333,24.1316195 M37.1094124,26.3519859 C37.1094124,26.5080677 37.0880248,26.6517181 37.0452496,26.7829373 C37.0024744,26.9148471 36.9417612,27.0329443 36.8644899,27.1379197 C36.7865287,27.2422044 36.6933891,27.3347484 36.5836915,27.4134799 C36.4746837,27.492902 36.3511876,27.5592023 36.213893,27.6130712 C36.0772884,27.6669401 35.9303349,27.7069965 35.7737225,27.7339309 C35.6171101,27.7608654 35.4377302,27.7739873 35.2355829,27.7739873 L33.8315907,27.7739873 C33.7674279,27.7739873 33.7074047,27.7539591 33.650831,27.7145934 C33.5942574,27.6752276 33.5652806,27.6054743 33.5652806,27.506024 L33.5652806,23.0811755 C33.5652806,22.9810345 33.5942574,22.9119718 33.650831,22.8719154 C33.7074047,22.8325497 33.7674279,22.8125215 33.8315907,22.8125215 L35.0527535,22.8125215 C35.3742574,22.8125215 35.6371178,22.8408372 35.8427147,22.896778 C36.0469318,22.9534094 36.2180326,23.0349035 36.3553271,23.1426413 C36.4926217,23.2496885 36.5954202,23.3815983 36.6651023,23.5376801 C36.7340946,23.6930712 36.7685907,23.8698717 36.7685907,24.0667005 C36.7685907,24.1841071 36.7534124,24.2966794 36.7230558,24.4037266 C36.6926992,24.5114644 36.6478543,24.6102241 36.587831,24.7013869 C36.5284977,24.7918591 36.453986,24.8726624 36.3636062,24.9444877 C36.2739163,25.0163129 36.1704279,25.0750162 36.053831,25.1205976 C36.2007845,25.1461508 36.3380791,25.1931135 36.4657147,25.2607949 C36.5926605,25.3284764 36.7044279,25.4148048 36.7996372,25.5197801 C36.8955364,25.6247555 36.970738,25.7469965 37.0266217,25.8878844 C37.0818155,26.0280817 37.1094124,26.1827822 37.1094124,26.3519859" id="Fill-10"></path>
                            <path d="M41.9412845,25.2816519 C41.9412845,25.0005666 41.9143775,24.7395095 41.8605636,24.49779 C41.8060597,24.2560705 41.7163698,24.0468104 41.5908039,23.8686286 C41.4645481,23.691828 41.2968969,23.5523214 41.0864705,23.452871 C40.8760442,23.3534207 40.6159434,23.3036956 40.3061682,23.3036956 C39.996393,23.3036956 39.7362922,23.3568739 39.5265558,23.4646117 C39.3161295,23.5716589 39.1450287,23.7153094 39.0139434,23.8941818 C38.8828581,24.0730543 38.7883388,24.2816237 38.7317651,24.5205807 C38.6751915,24.7595377 38.6469047,25.010926 38.6469047,25.274055 C38.6469047,25.5654996 38.6731217,25.833463 38.7255558,26.0793263 C38.7779899,26.3251896 38.8663,26.5365215 38.991176,26.7140127 C39.115362,26.8915039 39.2823233,27.0296293 39.4906798,27.128389 C39.6997264,27.2264581 39.9618969,27.2754926 40.2771915,27.2754926 C40.5897264,27.2754926 40.8525868,27.2216237 41.0657729,27.1145765 C41.2789589,27.0068386 41.4500597,26.8624975 41.580455,26.6794813 C41.7101605,26.4964651 41.8033,26.2851332 41.8584938,26.0447949 C41.9136876,25.8044567 41.9412845,25.5503058 41.9412845,25.2816519 M42.6974395,25.2360705 C42.6974395,25.6366342 42.6463853,25.9985229 42.5435868,26.3210458 C42.4414783,26.6428781 42.2883155,26.9170571 42.0847884,27.1435828 C41.8812612,27.3694179 41.6253,27.543456 41.3182845,27.6650063 C41.0105791,27.7858661 40.6518194,27.8466413 40.2420054,27.8466413 C39.8377109,27.8466413 39.4879202,27.7913911 39.1926333,27.6802001 C38.8980364,27.5690092 38.6538039,27.4074024 38.4620054,27.1953798 C38.2688271,26.9826667 38.1260132,26.7195377 38.0321837,26.4053023 C37.9376643,26.0910669 37.8907496,25.7291783 37.8907496,25.320327 C37.8907496,24.929432 37.9418039,24.573759 38.0439124,24.2546892 C38.1467109,23.9349288 38.3005636,23.6628217 38.5054705,23.4397491 C38.7103775,23.2159859 38.9663388,23.0433291 39.2740442,22.9217787 C39.5817496,22.8002283 39.9398194,22.7394531 40.3503233,22.7394531 C40.7463388,22.7394531 41.0913,22.7947033 41.3845171,22.904513 C41.6777341,23.0143228 41.9226566,23.1745483 42.1179047,23.3858802 C42.3131527,23.5972121 42.4587264,23.8575786 42.5539357,24.1683608 C42.6498349,24.4784524 42.6974395,24.8348161 42.6974395,25.2360705" id="Fill-11"></path>
                            <path d="M49.6738667,27.6743298 C49.6738667,27.6950486 49.6676574,27.7123143 49.6566186,27.7281987 C49.6442,27.7433925 49.6248822,27.7558238 49.5959054,27.764802 C49.5676186,27.7730895 49.5310527,27.781377 49.4868977,27.7875927 C49.4427426,27.7938083 49.3847891,27.7972615 49.3137271,27.7972615 C49.2481845,27.7972615 49.1916109,27.7938083 49.145386,27.7875927 C49.0977814,27.781377 49.0605256,27.7730895 49.0336186,27.764802 C49.0067116,27.7558238 48.9880837,27.7433925 48.9756651,27.7281987 C48.9646264,27.7123143 48.959107,27.6950486 48.959107,27.6743298 L48.959107,23.3530754 L48.9508279,23.3530754 L47.0556109,27.6936674 C47.0480217,27.7116237 47.0356031,27.7268175 47.0204248,27.7399394 C47.0052465,27.7523707 46.983169,27.7634207 46.9541922,27.7723989 C46.9252155,27.781377 46.8907194,27.7875927 46.8507039,27.7910458 C46.8099984,27.7951896 46.7623938,27.7972615 46.7072,27.7972615 C46.6492465,27.7972615 46.5988822,27.7944989 46.5574868,27.7889739 C46.5160915,27.7848302 46.4809054,27.7772333 46.4533085,27.7682551 C46.4257116,27.759277 46.404324,27.7489175 46.3898357,27.7357956 C46.3739674,27.7233643 46.3636186,27.7088612 46.3580992,27.6936674 L44.5463628,23.3530754 L44.5422233,23.3530754 L44.5422233,27.6743298 C44.5422233,27.6950486 44.5367039,27.7123143 44.5249752,27.7281987 C44.5132465,27.7433925 44.4939287,27.7558238 44.4649519,27.764802 C44.4366651,27.7730895 44.3994093,27.781377 44.3538744,27.7875927 C44.3083395,27.7938083 44.2496961,27.7972615 44.1786341,27.7972615 C44.1096419,27.7972615 44.0530682,27.7938083 44.0068434,27.7875927 C43.9613085,27.781377 43.9254326,27.7730895 43.8978357,27.764802 C43.8709287,27.7558238 43.8523008,27.7433925 43.8426419,27.7281987 C43.832293,27.7123143 43.8274636,27.6950486 43.8274636,27.6743298 L43.8274636,23.1120465 C43.8274636,23.0043087 43.8585101,22.927649 43.9206031,22.881377 C43.9820062,22.8357956 44.0509984,22.8130049 44.1268899,22.8130049 L44.5656806,22.8130049 C44.6560605,22.8130049 44.7347116,22.8206018 44.802324,22.8357956 C44.8692465,22.8509894 44.9285798,22.8751614 44.9789442,22.9083115 C45.0299984,22.9414616 45.0720837,22.9842805 45.1058899,23.0353869 C45.1396961,23.0864933 45.1693628,23.1458872 45.1948899,23.21495 L46.7320372,26.8082833 L46.7527349,26.8082833 L48.3519752,23.2266906 C48.3830217,23.150031 48.4168279,23.0844214 48.4540837,23.0312431 C48.4899597,22.9773742 48.5299752,22.9345553 48.5741302,22.9027865 C48.6175953,22.8710176 48.6658899,22.8482269 48.7197039,22.8337237 C48.7735178,22.8199112 48.8349209,22.8130049 48.905293,22.8130049 L49.3647814,22.8130049 C49.4075566,22.8130049 49.4468822,22.81853 49.4855178,22.8302706 C49.5234636,22.8413206 49.5558899,22.859277 49.5827969,22.8834489 C49.6097039,22.9076209 49.6317814,22.9386991 49.6476496,22.975993 C49.6648977,23.0125962 49.6738667,23.0581776 49.6738667,23.1120465 L49.6738667,27.6743298 Z" id="Fill-12"></path>
                            <path d="M52.8145318,23.4719323 L52.8103922,23.4719323 L51.8838264,25.9450684 L53.7535163,25.9450684 L52.8145318,23.4719323 Z M55.1285318,27.5404172 C55.1506093,27.596358 55.162338,27.6419394 55.1637178,27.6764708 C55.1650977,27.7110021 55.1547488,27.7372459 55.1326713,27.7552023 C55.1105938,27.7731586 55.0740279,27.7842086 55.0222837,27.789043 C54.9712295,27.794568 54.9029271,27.7973305 54.8173767,27.7973305 C54.7311364,27.7973305 54.6628341,27.7952586 54.6110899,27.7911149 C54.5600357,27.7876617 54.5214,27.7814461 54.494493,27.7724679 C54.468276,27.7634898 54.4496481,27.7510585 54.4365395,27.7358647 C54.4241209,27.7206709 54.4123922,27.7013333 54.4013535,27.6785426 L53.9404853,26.4706357 L51.7051364,26.4706357 L51.264276,27.6626582 C51.2559969,27.6861395 51.2456481,27.7061677 51.2318496,27.7220521 C51.2173612,27.7393178 51.1973535,27.7531304 51.1711364,27.764871 C51.1449194,27.7759211 51.1076636,27.7842086 51.0586791,27.789043 C51.0103845,27.794568 50.9476016,27.7973305 50.8696403,27.7973305 C50.7896093,27.7973305 50.7240667,27.7938774 50.6730124,27.7876617 C50.6212682,27.7814461 50.5853922,27.7690148 50.5646946,27.7510585 C50.5439969,27.7331022 50.534338,27.7068584 50.5357178,27.672327 C50.5370977,27.6377956 50.5488264,27.5922142 50.5709039,27.5362734 L52.3743612,22.9277181 C52.3847101,22.8994024 52.3998884,22.8766117 52.4171364,22.8586554 C52.4357643,22.8406991 52.4619814,22.8268865 52.4964775,22.8165271 C52.5309736,22.8061677 52.5751287,22.7992615 52.6296326,22.7951177 C52.6834465,22.7916646 52.7524388,22.7895927 52.8352295,22.7895927 C52.9242295,22.7895927 52.9973612,22.7916646 53.0553147,22.7951177 C53.1132682,22.7992615 53.1608729,22.8061677 53.1967488,22.8165271 C53.2326248,22.8268865 53.2602217,22.8413897 53.2795395,22.8607273 C53.2988574,22.8800648 53.3140357,22.9035462 53.3257643,22.9311712 L55.1285318,27.5404172 Z" id="Fill-13"></path>
                            <path d="M59.6782256,25.2816519 C59.6782256,25.0005666 59.6506287,24.7395095 59.5968147,24.49779 C59.5430008,24.2560705 59.4533109,24.0468104 59.327055,23.8686286 C59.2014891,23.691828 59.0331481,23.5523214 58.8234116,23.452871 C58.6129853,23.3534207 58.3528845,23.3036956 58.0431093,23.3036956 C57.7333341,23.3036956 57.4732333,23.3568739 57.262807,23.4646117 C57.0530705,23.5716589 56.8819698,23.7153094 56.7508845,23.8941818 C56.6191093,24.0730543 56.5252798,24.2816237 56.4680163,24.5205807 C56.4114426,24.7595377 56.3838457,25.010926 56.3838457,25.274055 C56.3838457,25.5654996 56.4093729,25.833463 56.4624969,26.0793263 C56.514931,26.3251896 56.6032411,26.5365215 56.7281171,26.7140127 C56.8523031,26.8915039 57.0192643,27.0296293 57.2276209,27.128389 C57.4366674,27.2264581 57.698838,27.2754926 58.0141326,27.2754926 C58.3266674,27.2754926 58.5895279,27.2216237 58.802714,27.1145765 C59.0152101,27.0068386 59.1870008,26.8624975 59.3167062,26.6794813 C59.4471016,26.4964651 59.5395512,26.2851332 59.5954349,26.0447949 C59.6499388,25.8044567 59.6782256,25.5503058 59.6782256,25.2816519 M60.4336907,25.2360705 C60.4336907,25.6366342 60.3826364,25.9985229 60.2805279,26.3210458 C60.1777295,26.6428781 60.0245667,26.9170571 59.8217295,27.1435828 C59.6175124,27.3694179 59.3622411,27.543456 59.0545357,27.6650063 C58.7475202,27.7858661 58.3887605,27.8466413 57.9789465,27.8466413 C57.5746519,27.8466413 57.2241713,27.7913911 56.9295744,27.6802001 C56.6349775,27.5690092 56.390745,27.4074024 56.1982566,27.1953798 C56.0057682,26.9826667 55.8629543,26.7195377 55.7684349,26.4053023 C55.6746054,26.0910669 55.6270008,25.7291783 55.6270008,25.320327 C55.6270008,24.929432 55.678055,24.573759 55.7808535,24.2546892 C55.8836519,23.9349288 56.0368147,23.6628217 56.2417217,23.4397491 C56.4473186,23.2159859 56.7032798,23.0433291 57.0109853,22.9217787 C57.3186907,22.8002283 57.6767605,22.7394531 58.0865744,22.7394531 C58.4832798,22.7394531 58.8275512,22.7947033 59.1214581,22.904513 C59.4146752,23.0143228 59.6589078,23.1745483 59.8548457,23.3858802 C60.0500938,23.5972121 60.1949775,23.8575786 60.2908767,24.1683608 C60.386086,24.4784524 60.4336907,24.8348161 60.4336907,25.2360705" id="Fill-14"></path>
                            <path d="M62.2452891,27.3560888 C62.2452891,27.5377237 62.2128628,27.6585835 62.1473202,27.7186681 C62.0824674,27.7787526 61.9638008,27.8084496 61.7920101,27.8084496 C61.6264287,27.8084496 61.5112116,27.7794433 61.4477388,27.72074 C61.3842659,27.661346 61.3518395,27.5439394 61.3518395,27.3678295 C61.3518395,27.1861945 61.3842659,27.0653347 61.4498085,27.0052502 C61.5146612,26.9451656 61.6333279,26.9154686 61.8051186,26.9154686 C61.9707,26.9154686 62.0859171,26.944475 62.1493899,27.0038689 C62.2135527,27.0625722 62.2452891,27.1792882 62.2452891,27.3560888" id="Fill-15"></path>
                            <path d="M67.0195527,27.072241 C67.0195527,27.1136786 67.0174829,27.1495913 67.0154132,27.1799789 C67.0126535,27.2103665 67.0071341,27.2373009 67.0002349,27.2600916 C66.9933357,27.2835729 66.9843667,27.3036011 66.9740178,27.3215574 C66.9622891,27.3395137 66.9429713,27.3616138 66.9160643,27.387167 C66.8877775,27.4127202 66.829824,27.4513953 66.740824,27.503883 C66.652514,27.5563707 66.5421264,27.6074771 66.4110411,27.6572023 C66.2792659,27.7069274 66.1281729,27.7490557 65.957762,27.783587 C65.7873512,27.8181184 65.6010721,27.8353841 65.3989248,27.8353841 C65.049824,27.8353841 64.7352194,27.7815152 64.453731,27.6744679 C64.1729326,27.5667301 63.9328395,27.4085765 63.7355217,27.1986258 C63.536824,26.9893658 63.3850411,26.7303805 63.2781031,26.4223608 C63.171855,26.1143411 63.1180411,25.7600493 63.1180411,25.3587949 C63.1180411,24.9471811 63.1753047,24.5804581 63.2905217,24.2579352 C63.4057388,23.9361029 63.5671806,23.6633051 63.7748473,23.4395419 C63.982514,23.2157787 64.230886,23.0451938 64.5206535,22.9277872 C64.809731,22.8096899 65.130545,22.7509866 65.4824054,22.7509866 C65.637638,22.7509866 65.7880411,22.7647992 65.9349946,22.7917336 C66.0819481,22.8186681 66.2171729,22.8525088 66.3420488,22.8932558 C66.4669248,22.9340028 66.5773124,22.9809655 66.6745915,23.0348344 C66.7718705,23.0887033 66.838793,23.1329035 66.8760488,23.1674348 C66.9133047,23.2019662 66.9381419,23.22821 66.9484907,23.2461663 C66.9595295,23.2641226 66.9691884,23.2848414 66.9760876,23.3090134 C66.9829868,23.3331853 66.9885062,23.3621917 66.9919558,23.3953418 C66.9967853,23.4284919 66.998855,23.4685483 66.998855,23.5141297 C66.998855,23.5652361 66.9960953,23.6087456 66.989886,23.6446582 C66.9843667,23.6805708 66.9760876,23.7109584 66.9650488,23.7344397 C66.9540101,23.7586117 66.9409016,23.7772586 66.9257233,23.7883087 C66.909855,23.8000493 66.8912271,23.8055743 66.8691496,23.8055743 C66.829824,23.8055743 66.7760101,23.7807118 66.7063279,23.7309866 C66.6366457,23.6812615 66.5469558,23.6260113 66.4365682,23.5659267 C66.3268705,23.5058421 66.1930256,23.4512826 66.0357233,23.4015574 C65.8784209,23.3511416 65.6900721,23.3262791 65.4699868,23.3262791 C65.2305837,23.3262791 65.0125682,23.3704792 64.8166302,23.4588795 C64.6200023,23.5472798 64.4523512,23.6764271 64.3129868,23.8477026 C64.1736225,24.0189782 64.0659946,24.2282382 63.9894132,24.4747921 C63.9128318,24.721346 63.8741961,25.0031219 63.8741961,25.3201198 C63.8741961,25.6343552 63.9114519,25.9126779 63.9845837,26.1537068 C64.0590953,26.3954264 64.1646535,26.5977801 64.302638,26.7600775 C64.4406225,26.9223749 64.6096535,27.0453066 64.809731,27.1281818 C65.0104984,27.2110571 65.2374829,27.2524947 65.4906845,27.2524947 C65.7045605,27.2524947 65.8922194,27.2283228 66.0522814,27.1799789 C66.2130333,27.131635 66.3489481,27.0770754 66.4620953,27.0169908 C66.5745527,26.9569063 66.6670023,26.9023467 66.7394442,26.8540028 C66.811886,26.8056589 66.8691496,26.781487 66.9112349,26.781487 C66.9305527,26.781487 66.9471109,26.7849401 66.9609093,26.792537 C66.9747078,26.8001339 66.9857465,26.8153277 66.9947155,26.8367371 C67.0029946,26.8581466 67.008514,26.8885342 67.0133434,26.9272093 C67.0174829,26.9651938 67.0195527,27.0135377 67.0195527,27.072241" id="Fill-16"></path>
                            <path d="M71.6392736,25.2816519 C71.6392736,25.0005666 71.6116767,24.7395095 71.5578628,24.49779 C71.5040488,24.2560705 71.4143589,24.0468104 71.2881031,23.8686286 C71.1625372,23.691828 70.9941961,23.5523214 70.7844597,23.452871 C70.5740333,23.3534207 70.3139326,23.3036956 70.0041574,23.3036956 C69.6943822,23.3036956 69.4342814,23.3568739 69.223855,23.4646117 C69.0141186,23.5716589 68.8430178,23.7153094 68.7119326,23.8941818 C68.5801574,24.0730543 68.4863279,24.2816237 68.4290643,24.5205807 C68.3724907,24.7595377 68.3448938,25.010926 68.3448938,25.274055 C68.3448938,25.5654996 68.3704209,25.833463 68.423545,26.0793263 C68.4759791,26.3251896 68.5642891,26.5365215 68.6891651,26.7140127 C68.8133512,26.8915039 68.9803124,27.0296293 69.188669,27.128389 C69.3977155,27.2264581 69.659886,27.2754926 69.9751806,27.2754926 C70.2877155,27.2754926 70.550576,27.2216237 70.763762,27.1145765 C70.9762581,27.0068386 71.1480488,26.8624975 71.2777543,26.6794813 C71.4081496,26.4964651 71.5005992,26.2851332 71.5564829,26.0447949 C71.6109868,25.8044567 71.6392736,25.5503058 71.6392736,25.2816519 M72.3947388,25.2360705 C72.3947388,25.6366342 72.3436845,25.9985229 72.241576,26.3210458 C72.1387775,26.6428781 71.9856147,26.9170571 71.7827775,27.1435828 C71.5785605,27.3694179 71.3232891,27.543456 71.0155837,27.6650063 C70.7085682,27.7858661 70.3498085,27.8466413 69.9399946,27.8466413 C69.5357,27.8466413 69.1852194,27.7913911 68.8906225,27.6802001 C68.5960256,27.5690092 68.351793,27.4074024 68.1593047,27.1953798 C67.9668163,26.9826667 67.8240023,26.7195377 67.7294829,26.4053023 C67.6356535,26.0910669 67.5880488,25.7291783 67.5880488,25.320327 C67.5880488,24.929432 67.6391031,24.573759 67.7419016,24.2546892 C67.8447,23.9349288 67.9978628,23.6628217 68.2027698,23.4397491 C68.4083667,23.2159859 68.6643279,23.0433291 68.9720333,22.9217787 C69.2797388,22.8002283 69.6378085,22.7394531 70.0476225,22.7394531 C70.4443279,22.7394531 70.7885992,22.7947033 71.0825062,22.904513 C71.3757233,23.0143228 71.6199558,23.1745483 71.8158938,23.3858802 C72.0111419,23.5972121 72.1560256,23.8575786 72.2519248,24.1683608 C72.3471341,24.4784524 72.3947388,24.8348161 72.3947388,25.2360705" id="Fill-17"></path>
                            <path d="M79.3712349,27.6743298 C79.3712349,27.6950486 79.3650256,27.7123143 79.3539868,27.7281987 C79.3422581,27.7433925 79.3222504,27.7558238 79.2939636,27.764802 C79.2649868,27.7730895 79.2291109,27.781377 79.1849558,27.7875927 C79.1408008,27.7938083 79.0828473,27.7972615 79.0117853,27.7972615 C78.9462426,27.7972615 78.889669,27.7938083 78.8427543,27.7875927 C78.7951496,27.781377 78.7578938,27.7730895 78.7316767,27.764802 C78.7040798,27.7558238 78.6854519,27.7433925 78.6737233,27.7281987 C78.6619946,27.7123143 78.6564752,27.6950486 78.6564752,27.6743298 L78.6564752,23.3530754 L76.753669,27.6936674 C76.7453899,27.7116237 76.7336612,27.7268175 76.717793,27.7399394 C76.7026147,27.7523707 76.6805372,27.7634207 76.6515605,27.7723989 C76.6225837,27.781377 76.5880876,27.7875927 76.5480721,27.7910458 C76.5080566,27.7951896 76.459762,27.7972615 76.4045682,27.7972615 C76.3466147,27.7972615 76.2969403,27.7944989 76.254855,27.7889739 C76.2134597,27.7848302 76.1782736,27.7772333 76.1513667,27.7682551 C76.1230798,27.759277 76.1023822,27.7489175 76.0872039,27.7357956 C76.0713357,27.7233643 76.0609868,27.7088612 76.0554674,27.6936674 L74.243731,23.3530754 L74.2402814,27.6743298 C74.2402814,27.6950486 74.234762,27.7123143 74.2230333,27.7281987 C74.2113047,27.7433925 74.1919868,27.7558238 74.1630101,27.764802 C74.1347233,27.7730895 74.0974674,27.781377 74.0512426,27.7875927 C74.0063977,27.7938083 73.9477543,27.7972615 73.8760023,27.7972615 C73.8077,27.7972615 73.7511264,27.7938083 73.7049016,27.7875927 C73.6593667,27.781377 73.6234907,27.7730895 73.5958938,27.764802 C73.5689868,27.7558238 73.5503589,27.7433925 73.5400101,27.7281987 C73.5303512,27.7123143 73.5255217,27.6950486 73.5255217,27.6743298 L73.5255217,23.1120465 C73.5255217,23.0043087 73.5558783,22.927649 73.6179713,22.881377 C73.6800643,22.8357956 73.7490566,22.8130049 73.8249481,22.8130049 L74.2637388,22.8130049 C74.3534287,22.8130049 74.4327698,22.8206018 74.5003822,22.8357956 C74.5673047,22.8509894 74.626638,22.8751614 74.6770023,22.9083115 C74.7273667,22.9414616 74.7701419,22.9842805 74.8039481,23.0353869 C74.8377543,23.0864933 74.866731,23.1458872 74.8922581,23.21495 L76.4294054,26.8082833 L76.4501031,26.8082833 L78.0493434,23.2266906 C78.0810798,23.150031 78.1141961,23.0844214 78.1514519,23.0312431 C78.1873279,22.9773742 78.2280333,22.9345553 78.2714984,22.9027865 C78.3149636,22.8710176 78.3639481,22.8482269 78.4170721,22.8337237 C78.470886,22.8199112 78.5322891,22.8130049 78.6026612,22.8130049 L79.0628395,22.8130049 C79.1049248,22.8130049 79.1449403,22.81853 79.182886,22.8302706 C79.2208318,22.8413206 79.2532581,22.859277 79.2801651,22.8834489 C79.3070721,22.9076209 79.3291496,22.9386991 79.3457078,22.975993 C79.3622659,23.0125962 79.3712349,23.0581776 79.3712349,23.1120465 L79.3712349,27.6743298 Z" id="Fill-18"></path>
                        </g>
                    </g>
                    <g id="Fill-19">
                        <use fill="url(#linearGradient-1)" fill-rule="evenodd" xlink:href="#path-3"></use>
                        <use fill="url(#linearGradient-2)" fill-rule="evenodd" xlink:href="#path-3"></use>
                        <use fill="black" fill-opacity="1" filter="url(#filter-4)" xlink:href="#path-3"></use>
                    </g>
                    <mask id="mask-6" fill="white">
                        <use xlink:href="#path-5"></use>
                    </mask>
                    <g id="Mask"></g>
                    <path d="M14.4535558,9.98293695 C14.4535558,9.98293695 15.146985,10.4789695 15.7735669,10.9581069 C16.4001488,11.4372443 17.011339,11.9388338 17.011339,11.9388338 L14.0767508,18.9050579 L8.14529847,19.0021651 L11.332866,10.8066808 L14.4535558,9.98293695 Z" id="Path-2" fill-opacity="0.460000008" fill="url(#linearGradient-7)" mask="url(#mask-6)"></path>
                </g>
            </g>
        </g>
    </g>
</svg>